<?xml version="1.0" encoding="UTF-8"?>
<svg version="1.1" xmlns="http://www.w3.org/2000/svg" width="649" height="649">
<path d="M0 0 C3.64357268 3.76110728 3.27410258 7.19860264 3.21484375 12.2421875 C2.68185997 17.54199806 -0.1698345 20.14700852 -3.875 23.6875 C-11.54006863 29.24843214 -17.75790714 30 -27.0625 30 C-27.0625 39.24 -27.0625 48.48 -27.0625 58 C-28.3825 58 -29.7025 58 -31.0625 58 C-31.0625 47.11 -31.0625 36.22 -31.0625 25 C-28.0925 25 -25.1225 25 -22.0625 25 C-14.56677462 24.23559574 -7.9754293 21.45910355 -3.0625 15.625 C-1.74893526 12.17689255 -1.58855026 9.65618372 -2.0625 6 C-8.72995948 -0.33484246 -19.85794821 0.80143531 -28.38671875 0.9296875 C-29.26972656 0.95289063 -30.15273437 0.97609375 -31.0625 1 C-31.0625 -0.32 -31.0625 -1.64 -31.0625 -3 C-20.95080442 -4.49802897 -8.94708541 -5.84299456 0 0 Z " fill="#FFFFFF" transform="translate(262.0625,272)"/>
<path d="M0 0 C1.32 0 2.64 0 4 0 C4 9.57 4 19.14 4 29 C7.96 29 11.92 29 16 29 C23.05127548 31.38095016 29.33779732 34.83307406 33.4375 41.25 C34.56815524 46.77764784 35.11676594 51.93827826 32.375 57 C26.32820308 62.09203952 19.1010475 61.23947423 11.625 61.125 C10.50738281 61.11597656 9.38976562 61.10695313 8.23828125 61.09765625 C5.49196538 61.07418346 2.74609528 61.04134728 0 61 C0 59.68 0 58.36 0 57 C0.63502441 56.98541748 1.27004883 56.97083496 1.92431641 56.95581055 C4.82513081 56.88094911 7.72484206 56.78441574 10.625 56.6875 C12.12353516 56.65366211 12.12353516 56.65366211 13.65234375 56.61914062 C22.01699719 56.34593834 22.01699719 56.34593834 29 52 C29.39449853 47.97611502 29.23277644 45.49464994 27.5 41.8125 C20.16327974 33.55868971 10.64879678 33.76062834 0 33 C0 22.11 0 11.22 0 0 Z " fill="#FFFFFF" transform="translate(389,240)"/>
<path d="M0 0 C0 10.23 0 20.46 0 31 C-20.76923077 36.19230769 -20.76923077 36.19230769 -30 31 C-32.5242483 28.98060136 -32.94833532 28.15499404 -34 25 C-34.51408839 18.31685089 -33.08722714 13.6564709 -28.9375 8.375 C-19.73273021 0.93284571 -11.46804168 0 0 0 Z M-25.703125 11.45703125 C-28.677705 14.69658821 -30 17.61963544 -30 22 C-28.67831134 25.34309483 -27.36965999 26.73853318 -24.4375 28.8125 C-17.13680429 31.33455852 -11.35533584 30.10152453 -4 28 C-4 20.41 -4 12.82 -4 5 C-13.5245119 5 -18.61675875 5.39461242 -25.703125 11.45703125 Z " fill="#FFFFFF" transform="translate(378,268)"/>
<path d="M0 0 C0 10.23 0 20.46 0 31 C-21 36.25 -21 36.25 -30 31 C-33.05117269 28.25394458 -33.70008947 25.20681153 -34.0625 21.15234375 C-33.91584266 16.10183159 -31.96844862 12.26191789 -28.9375 8.3125 C-19.71831073 1.05484036 -11.41414666 0 0 0 Z M-24.96484375 10.5078125 C-28.0678657 13.64734059 -29.40323414 16.25586815 -29.6875 20.6875 C-29.44730177 24.12643568 -29.15699928 24.82555636 -26.75 27.5 C-23.02635916 29.53107682 -19.90617649 30.15003396 -15.6875 30.1875 C-14.61048828 30.20876953 -14.61048828 30.20876953 -13.51171875 30.23046875 C-10.19592805 30.00461859 -10.19592805 30.00461859 -4 28 C-4 20.41 -4 12.82 -4 5 C-12.57841066 5 -18.17639242 5.29838464 -24.96484375 10.5078125 Z " fill="#FFFFFF" transform="translate(305,268)"/>
<path d="M0 0 C1.32 0 2.64 0 4 0 C4.01030746 0.7052179 4.02061493 1.41043579 4.03123474 2.13702393 C4.12926898 8.78755443 4.23179179 15.43799888 4.33933926 22.08838272 C4.39447071 25.50729472 4.44787477 28.92621542 4.49731445 32.34521484 C4.55424676 36.27710613 4.61872237 40.20885636 4.68359375 44.140625 C4.70030624 45.36678528 4.71701874 46.59294556 4.73423767 47.85626221 C4.75418289 48.99714294 4.77412811 50.13802368 4.79467773 51.31347656 C4.81022202 52.31719299 4.8257663 53.32090942 4.84178162 54.3550415 C4.98300307 56.71586004 5.33050856 58.73991331 6 61 C4.35 61 2.7 61 1 61 C-0.32953792 58.34092416 -0.11986031 56.33434632 -0.11352539 53.35693359 C-0.11344986 52.17586029 -0.11337433 50.99478699 -0.11329651 49.77792358 C-0.10813522 48.49769318 -0.10297394 47.21746277 -0.09765625 45.8984375 C-0.0962413 44.59170074 -0.09482635 43.28496399 -0.09336853 41.93862915 C-0.08954894 38.46323742 -0.07972342 34.98788743 -0.06866455 31.51251221 C-0.05843843 27.96668055 -0.05386833 24.42084215 -0.04882812 20.875 C-0.03810066 13.91664951 -0.02103092 6.95832676 0 0 Z " fill="#FFFFFF" transform="translate(332,240)"/>
<path d="M0 0 C1.32 0 2.64 0 4 0 C4.01030746 0.69046921 4.02061493 1.38093842 4.03123474 2.09233093 C4.13941441 9.27868906 4.25400321 16.46492472 4.37231445 23.65112305 C4.41614094 26.33306042 4.45769628 29.01501872 4.49731445 31.69702148 C4.55510707 35.55200307 4.61877607 39.40684967 4.68359375 43.26171875 C4.70030624 44.46084396 4.71701874 45.65996918 4.73423767 46.89543152 C4.75418289 48.01621597 4.77412811 49.13700043 4.79467773 50.29174805 C4.81022202 51.27547897 4.8257663 52.2592099 4.84178162 53.27275085 C4.99629508 55.93613732 5.40938182 58.40164631 6 61 C3.5625 60.625 3.5625 60.625 1 60 C-0.31857548 57.36284904 -0.11991704 55.4016736 -0.11352539 52.44873047 C-0.11344986 51.28767792 -0.11337433 50.12662537 -0.11329651 48.9303894 C-0.10813522 47.67203278 -0.10297394 46.41367615 -0.09765625 45.1171875 C-0.0962413 43.83264679 -0.09482635 42.54810608 -0.09336853 41.22463989 C-0.08954911 37.80843158 -0.07972373 34.39226574 -0.06866455 30.97607422 C-0.05843807 27.49056574 -0.05386826 24.0050504 -0.04882812 20.51953125 C-0.03810096 13.67967005 -0.02103142 6.83983706 0 0 Z " fill="#FFFFFF" transform="translate(316,240)"/>
<path d="M0 0 C1.3125 2.0625 1.3125 2.0625 2 4 C-0.97 3.505 -0.97 3.505 -4 3 C-6.36692966 5.84826598 -6.36692966 5.84826598 -5.625 9.1875 C-5.41875 10.115625 -5.2125 11.04375 -5 12 C-3.68 12.33 -2.36 12.66 -1 13 C-1 12.01 -1 11.02 -1 10 C-2.32 10 -3.64 10 -5 10 C-5 9.01 -5 8.02 -5 7 C-2.69 7 -0.38 7 2 7 C2 9.64 2 12.28 2 15 C-0.36445821 16.48873294 -1.73904068 17.00636486 -4.5625 16.9375 C-7 16 -7 16 -8.875 14 C-10.45005851 9.79984397 -10.21449903 6.29618705 -9 2 C-6.24369785 -1.34693832 -3.98159034 -1.5716804 0 0 Z " fill="#FFFFFF" transform="translate(344,311)"/>
<path d="M0 0 C3.3 0 6.6 0 10 0 C11.12790698 6.51679587 11.12790698 6.51679587 10.4375 9.125 C9.80257961 11.84608737 10.83768793 13.53863326 12 16 C11.01 16.33 10.02 16.66 9 17 C6 12.25 6 12.25 6 10 C5.01 10 4.02 10 3 10 C3 11.98 3 13.96 3 16 C2.01 16 1.02 16 0 16 C0 10.72 0 5.44 0 0 Z M3 2 C3 3.65 3 5.3 3 7 C4.65 6.67 6.3 6.34 8 6 C8 5.01 8 4.02 8 3 C6.35 2.67 4.7 2.34 3 2 Z " fill="#FFFFFF" transform="translate(353,311)"/>
<path d="M0 0 C2.15942819 3.23914229 2.27232978 4.24859733 2.25 8 C2.25515625 8.86625 2.2603125 9.7325 2.265625 10.625 C2 13 2 13 0 16 C-2.3125 17 -2.3125 17 -5 17 C-7.85208167 15.03523263 -9.70194783 13.53892241 -10.3828125 10.0234375 C-10.48010079 6.31258407 -10.28239836 3.00315573 -8 0 C-4.67212881 -1.1092904 -3.3006216 -1.01557588 0 0 Z M-5 2 C-7.16617415 5.24926122 -7.21335669 5.5985242 -6.625 9.1875 C-6.41875 10.445625 -6.2125 11.70375 -6 13 C-5.01 13.33 -4.02 13.66 -3 14 C-0.5705484 10.3558226 -0.83820425 8.28758728 -1 4 C-2.32 3.34 -3.64 2.68 -5 2 Z " fill="#FFFFFF" transform="translate(326,311)"/>
<path d="M0 0 C2.15942819 3.23914229 2.27232978 4.24859733 2.25 8 C2.25515625 8.86625 2.2603125 9.7325 2.265625 10.625 C2 13 2 13 0 16 C-2.3125 17 -2.3125 17 -5 17 C-7.85208167 15.03523263 -9.70194783 13.53892241 -10.3828125 10.0234375 C-10.48010079 6.31258407 -10.28239836 3.00315573 -8 0 C-4.67212881 -1.1092904 -3.3006216 -1.01557588 0 0 Z M-5 2 C-7.16617415 5.24926122 -7.21335669 5.5985242 -6.625 9.1875 C-6.41875 10.445625 -6.2125 11.70375 -6 13 C-5.01 13.33 -4.02 13.66 -3 14 C-0.5705484 10.3558226 -0.83820425 8.28758728 -1 4 C-2.32 3.34 -3.64 2.68 -5 2 Z " fill="#FFFFFF" transform="translate(290,311)"/>
<path d="M0 0 C1.65 0.33 3.3 0.66 5 1 C5.6700834 3.12392506 6.33596797 5.24917524 7 7.375 C7.37125 8.55835938 7.7425 9.74171875 8.125 10.9609375 C9 14 9 14 9 16 C8.01 16.33 7.02 16.66 6 17 C5.67 15.35 5.34 13.7 5 12 C2.55519921 12.18828772 2.55519921 12.18828772 0 13 C-1.36020151 14.96758273 -1.36020151 14.96758273 -2 17 C-2.99 16.34 -3.98 15.68 -5 15 C-3.35 10.05 -1.7 5.1 0 0 Z M2 6 C1.67 6.99 1.34 7.98 1 9 C1.66 9 2.32 9 3 9 C2.67 8.01 2.34 7.02 2 6 Z " fill="#FFFFFF" transform="translate(374,311)"/>
<path d="M0 0 C0.99 0 1.98 0 3 0 C3 1.98 3 3.96 3 6 C4.65 6 6.3 6 8 6 C8 4.02 8 2.04 8 0 C8.99 0 9.98 0 11 0 C11 5.28 11 10.56 11 16 C10.01 16 9.02 16 8 16 C8 13.69 8 11.38 8 9 C6.35 9 4.7 9 3 9 C3 11.31 3 13.62 3 16 C2.01 16 1.02 16 0 16 C0 10.72 0 5.44 0 0 Z " fill="#FFFFFF" transform="translate(407,311)"/>
<path d="M0 0 C0.99 0 1.98 0 3 0 C3 1.98 3 3.96 3 6 C4.65 6 6.3 6 8 6 C8 4.02 8 2.04 8 0 C8.99 0 9.98 0 11 0 C11 5.28 11 10.56 11 16 C10.01 16 9.02 16 8 16 C8 13.69 8 11.38 8 9 C6.35 9 4.7 9 3 9 C3 11.31 3 13.62 3 16 C2.01 16 1.02 16 0 16 C0 10.72 0 5.44 0 0 Z " fill="#FFFFFF" transform="translate(263,311)"/>
<path d="M0 0 C6.93359375 -0.09765625 6.93359375 -0.09765625 9 0 C10 1 10 1 10.25 4.4375 C10.1675 5.613125 10.085 6.78875 10 8 C7 10 7 10 3 10 C3 11.98 3 13.96 3 16 C2.01 16 1.02 16 0 16 C0 10.72 0 5.44 0 0 Z M3 2 C3 3.65 3 5.3 3 7 C4.32 6.67 5.64 6.34 7 6 C7 5.01 7 4.02 7 3 C5.68 2.67 4.36 2.34 3 2 Z " fill="#FFFFFF" transform="translate(390,311)"/>
<path d="M0 0 C6.93359375 -0.09765625 6.93359375 -0.09765625 9 0 C10 1 10 1 10.25 4.4375 C10.1675 5.613125 10.085 6.78875 10 8 C7 10 7 10 3 10 C3 11.98 3 13.96 3 16 C2.01 16 1.02 16 0 16 C0 10.72 0 5.44 0 0 Z M3 2 C3 3.65 3 5.3 3 7 C4.32 6.67 5.64 6.34 7 6 C7 5.01 7 4.02 7 3 C5.68 2.67 4.36 2.34 3 2 Z " fill="#FFFFFF" transform="translate(246,311)"/>
<path d="M0 0 C0.66 0 1.32 0 2 0 C2.99 1.98 3.98 3.96 5 6 C6.32 4.02 7.64 2.04 9 0 C9.99 0.33 10.98 0.66 12 1 C10.17708333 5.6875 10.17708333 5.6875 8.9375 7.875 C7.62876356 10.84146927 7.36953746 13.79734198 7 17 C6.01 17 5.02 17 4 17 C3.731875 15.783125 3.46375 14.56625 3.1875 13.3125 C2.50202955 10.49611055 1.85675777 8.76656821 0.3125 6.25 C-1 4 -1 4 -0.6875 1.6875 C-0.460625 1.130625 -0.23375 0.57375 0 0 Z " fill="#FFFFFF" transform="translate(425,310)"/>
<path d="M0 0 C3.96 0 7.92 0 12 0 C12 0.66 12 1.32 12 2 C10.68 2 9.36 2 8 2 C8 6.62 8 11.24 8 16 C7.01 16 6.02 16 5 16 C5 11.38 5 6.76 5 2 C3.35 2 1.7 2 0 2 C0 1.34 0 0.68 0 0 Z " fill="#FFFFFF" transform="translate(298,311)"/>
</svg>
